<svg version="1.1" preserveAspectRatio="none" xmlns="http://www.w3.org/2000/svg" width="500" height="500" viewBox="0 0 500 500"><rect width="100%" height="100%" fill="#FFFFFF" fill-opacity="1"/><svg viewBox="72.739 172.7434 473.4149 90" width="333" height="63.305992270205266" x="83.5px" y="218.347px" xmlns="http://www.w3.org/2000/svg" xmlns:xlink="http://www.w3.org/1999/xlink" preserveAspectRatio="none"><defs></defs><style>.aD6z1nYkhcolor {fill:#42A5FF;fill-opacity:1;}.aIptOCySncolors-3 {fill:#3CB9EF;fill-opacity:1;}.aIptOCySncolors-4 {fill:#83EDFF;fill-opacity:1;}.aIptOCySncolors-5 {fill:#AEDDFF;fill-opacity:1;}.aIptOCySncolors-6 {fill:#FFF1FF;fill-opacity:1;}.aIptOCySncolors-7 {fill:#FFE4CE;fill-opacity:1;}.icon1 {fill:#42A5FF;fill-opacity:1;}.icon2 {fill:#6DDDD0;fill-opacity:1;}.icon3 {fill:#FFD4D4;fill-opacity:1;}.icon3-str {stroke:#FFD4D4;stroke-opacity:1;}</style><g opacity="1" transform="rotate(0 72.739 172.7434)">
<svg width="75.1179" height="90" x="72.739" y="172.7434" version="1.1" preserveAspectRatio="none" viewBox="1.0130000114440918 0.718999981880188 2.9730000495910645 3.562000274658203">
  <g transform="matrix(1 0 0 1 0 0)" class="icon1"><g><polygon points="2.557,4.281 1.014,3.392 1.013,1.61 2.555,0.719 3.985,1.544 3.761,1.934 2.555,1.238 1.463,1.87    1.464,3.132 2.557,3.762 3.761,3.065 3.986,3.455  "></polygon><polygon points="2.557,3.433 1.748,2.967 1.748,2.034 2.555,1.568 3.251,1.969 3.025,2.358 2.556,2.088    2.198,2.294 2.198,2.707 2.557,2.913 3.025,2.642 3.251,3.03  "></polygon></g></g>
</svg>
</g><g opacity="1" transform="rotate(0 167.8569 187.7434)">
<svg width="378.297" height="60" x="167.8569" y="187.7434" version="1.1" preserveAspectRatio="none" viewBox="1.0352 -28.2422 204.8827 36.25">
  <g transform="matrix(1 0 0 1 0 0)" class="aD6z1nYkhcolor"><path id="id-D6z1nYkh11" d="M1.04-13.03L1.04-13.03Q1.04-16.37 1.85-18.97Q2.66-21.58 4.23-23.37Q5.80-25.16 8.10-26.09Q10.39-27.03 13.38-27.03L13.38-27.03Q14.51-27.03 15.69-26.87Q16.88-26.70 17.85-26.48L17.85-26.48Q18.98-26.25 20.04-25.96L20.04-25.96Q20-25.47 19.88-24.92L19.88-24.92Q19.79-24.45 19.59-23.84Q19.39-23.22 19.06-22.54L19.06-22.54Q18.24-22.83 17.30-23.05L17.30-23.05Q16.50-23.24 15.48-23.40Q14.45-23.55 13.38-23.55L13.38-23.55Q11.56-23.55 10.11-22.81Q8.65-22.07 7.65-20.69Q6.64-19.32 6.10-17.37Q5.57-15.43 5.57-13.03L5.57-13.03Q5.57-10.64 6.07-8.77Q6.58-6.89 7.58-5.61Q8.57-4.32 10.03-3.63Q11.48-2.95 13.38-2.95L13.38-2.95Q13.69-2.95 14.08-2.95Q14.47-2.95 14.86-2.97Q15.25-2.99 15.63-3.00Q16.00-3.01 16.29-3.05L16.29-3.05Q16.29-3.67 16.27-4.39Q16.25-5.12 16.23-5.87Q16.21-6.62 16.18-7.36Q16.15-8.11 16.13-8.79L16.13-8.79Q16.05-10.39 16.00-12.01L16.00-12.01Q16.70-12.21 17.28-12.27Q17.85-12.32 18.26-12.32L18.26-12.32Q18.67-12.32 19.07-12.27Q19.47-12.21 19.80-12.15L19.80-12.15Q20.18-12.07 20.51-11.99L20.51-11.99Q20.51-9.69 20.48-7.57Q20.45-5.45 20.41-3.81L20.41-3.81Q20.35-1.88 20.31-0.21L20.31-0.21L19.94 0.04Q18.91 0.18 17.81 0.27L17.81 0.27Q16.88 0.37 15.70 0.44Q14.53 0.51 13.38 0.51L13.38 0.51Q10.39 0.51 8.10-0.35Q5.80-1.21 4.23-2.92Q2.66-4.63 1.85-7.16Q1.04-9.69 1.04-13.03Z M23.96-9.98L23.96-9.98Q23.96-12.56 24.66-14.53Q25.35-16.50 26.61-17.83Q27.87-19.16 29.62-19.84Q31.37-20.53 33.48-20.53L33.48-20.53Q35.64-20.53 37.38-19.89Q39.12-19.26 40.33-17.97Q41.54-16.68 42.19-14.76Q42.83-12.83 42.83-10.25L42.83-10.25Q42.83-7.68 42.18-5.68Q41.52-3.69 40.30-2.34Q39.08-1.00 37.35-0.30Q35.63 0.39 33.48 0.39L33.48 0.39Q31.25 0.39 29.48-0.26Q27.71-0.92 26.49-2.22Q25.27-3.52 24.62-5.46Q23.96-7.40 23.96-9.98ZM33.48-2.83L33.48-2.83Q34.77-2.83 35.71-3.39Q36.66-3.95 37.27-4.93Q37.87-5.92 38.16-7.28Q38.46-8.63 38.46-10.25L38.46-10.25Q38.46-13.75 37.27-15.59Q36.07-17.42 33.48-17.42L33.48-17.42Q32.17-17.42 31.20-16.87Q30.23-16.31 29.60-15.31Q28.96-14.32 28.65-12.95Q28.34-11.58 28.34-9.98L28.34-9.98Q28.34-6.45 29.60-4.64Q30.86-2.83 33.48-2.83Z M49.86 0L44.65-19.96L48.85-19.96L52.52-4.55L52.97-2.05L53.36-4.53L56.76-19.96L62.05-19.96L65.63-4.55L66.09-2.05L66.52-4.55L70-19.96L74.06-19.96L69.02 0L63.07 0L59.86-14.26L59.34-17.15L58.85-14.26L55.94 0L49.86 0Z M76.09-0.90L76.09-0.90Q76.09-1.35 76.17-1.88L76.17-1.88Q76.23-2.32 76.36-2.90Q76.48-3.48 76.74-4.10L76.74-4.10Q77.60-3.77 78.54-3.52L78.54-3.52Q79.34-3.30 80.27-3.12Q81.21-2.93 82.13-2.93L82.13-2.93Q82.95-2.93 83.65-2.99Q84.36-3.05 84.87-3.31Q85.39-3.57 85.68-4.11Q85.98-4.65 85.98-5.61L85.98-5.61Q85.98-6.76 85.26-7.42Q84.55-8.09 82.79-8.42L82.79-8.42Q80.98-8.77 79.74-9.36Q78.50-9.94 77.72-10.71Q76.95-11.48 76.61-12.44Q76.27-13.40 76.27-14.49L76.27-14.49Q76.27-16.13 76.80-17.29Q77.32-18.44 78.33-19.15Q79.34-19.86 80.83-20.19Q82.32-20.51 84.26-20.51L84.26-20.51Q85.61-20.51 86.65-20.32Q87.70-20.14 88.40-19.92L88.40-19.92Q89.22-19.67 89.82-19.34L89.82-19.34Q89.77-18.91 89.61-18.40L89.61-18.40Q89.47-17.97 89.25-17.42Q89.02-16.88 88.65-16.31L88.65-16.31Q88.13-16.62 87.44-16.86L87.44-16.86Q86.86-17.07 86.04-17.24Q85.21-17.40 84.16-17.40L84.16-17.40Q83.34-17.40 82.65-17.32Q81.95-17.25 81.46-16.97Q80.96-16.70 80.68-16.14Q80.41-15.59 80.41-14.63L80.41-14.63Q80.41-14.16 80.54-13.78Q80.66-13.40 81.04-13.09Q81.43-12.77 82.12-12.51Q82.81-12.25 83.96-11.99L83.96-11.99Q85.76-11.60 86.96-11.09Q88.16-10.59 88.88-9.86Q89.59-9.14 89.89-8.17Q90.20-7.21 90.20-5.88L90.20-5.88Q90.20-4.45 89.75-3.30Q89.30-2.15 88.34-1.33Q87.38-0.51 85.88-0.06Q84.38 0.39 82.25 0.39L82.25 0.39Q80.88 0.39 79.76 0.20Q78.63 0 77.81-0.25L77.81-0.25Q76.86-0.53 76.09-0.90Z M97.21-23.34L97.21-23.34Q96.66-23.34 96.18-23.54Q95.70-23.73 95.34-24.06Q94.98-24.39 94.77-24.83Q94.55-25.27 94.55-25.78L94.55-25.78Q94.55-26.31 94.77-26.76Q94.98-27.21 95.34-27.54Q95.70-27.87 96.18-28.06Q96.66-28.24 97.21-28.24L97.21-28.24Q97.75-28.24 98.24-28.06Q98.73-27.87 99.09-27.54Q99.45-27.21 99.67-26.76Q99.88-26.31 99.88-25.78L99.88-25.78Q99.88-25.27 99.67-24.83Q99.45-24.39 99.09-24.06Q98.73-23.73 98.24-23.54Q97.75-23.34 97.21-23.34ZM94.96-3.36L94.96-19.96L99.02-19.96L99.02-3.28L100.18-2.46L100.18 0L99.06 0L99.02-0.04L99.02 0Q97.09 0 96.03-0.78Q94.96-1.56 94.96-3.36L94.96-3.36Z M105.04 0L105.04-28.13L109.02-28.13L109.02-13.26L108.83-10.43L109.86-11.66L116.13-19.96L120.86-19.96L114.51-11.91L112.89-10.37L114.16-9.22L121.21 0L116.46 0L109.75-9.02L108.83-10.20L109.02-6.64L109.02 0L105.04 0Z M122.87-5.70L122.87-5.70Q122.87-7.32 123.34-8.46Q123.81-9.59 124.72-10.31Q125.63-11.04 126.92-11.40Q128.22-11.76 129.90-11.86L129.90-11.86L134.26-12.09L134.26-13.65Q134.26-14.71 134.07-15.39Q133.89-16.07 133.46-16.48Q133.03-16.89 132.31-17.06Q131.60-17.23 130.55-17.23L130.55-17.23Q129.49-17.23 128.54-16.99Q127.60-16.76 126.89-16.48L126.89-16.48Q126.05-16.15 125.35-15.74L125.35-15.74Q124.92-16.35 124.67-16.90Q124.41-17.46 124.28-17.91L124.28-17.91Q124.10-18.42 124.04-18.89L124.04-18.89Q124.98-19.36 126.05-19.71L126.05-19.71Q126.99-20.02 128.21-20.27Q129.43-20.53 130.78-20.53L130.78-20.53Q133.01-20.53 134.47-20.14Q135.94-19.75 136.81-18.96Q137.68-18.16 138.02-16.96Q138.36-15.76 138.36-14.12L138.36-14.12L138.36-3.22L140-1.23L140 0L136.39 0L134.88-1.74L134.18-1.74Q134.08-1.64 133.66-1.30Q133.24-0.96 132.59-0.58Q131.93-0.20 131.10 0.10Q130.27 0.39 129.34 0.39L129.34 0.39Q127.87 0.39 126.68-0.05Q125.49-0.49 124.64-1.30Q123.79-2.11 123.33-3.23Q122.87-4.36 122.87-5.70ZM127.13-6.05L127.13-6.05Q127.13-5.16 127.38-4.56Q127.64-3.96 128.10-3.61Q128.55-3.26 129.21-3.13Q129.86-2.99 130.66-2.99L130.66-2.99Q131.41-2.99 132.06-3.17Q132.71-3.36 133.20-3.59L133.20-3.59Q133.77-3.85 134.26-4.20L134.26-4.20L134.26-9.45L130.33-9.20Q129.41-9.14 128.80-8.89Q128.18-8.63 127.81-8.22Q127.44-7.81 127.29-7.26Q127.13-6.70 127.13-6.05Z M142.56-20.18L146.15-20.18L148.16-18.07Q148.38-18.55 148.72-18.99Q149.06-19.43 149.52-19.77Q149.98-20.10 150.56-20.29Q151.13-20.49 151.82-20.49L151.82-20.49Q152.38-20.49 152.91-20.40Q153.44-20.31 154.06-20.10L154.06-20.10Q154.08-20.06 154.11-19.79Q154.14-19.51 154.14-19.10L154.14-19.10Q154.14-18.79 154.10-18.37Q154.06-17.95 153.97-17.51Q153.89-17.07 153.72-16.64Q153.55-16.21 153.30-15.90L153.30-15.90L152.93-15.80Q152.54-16.00 152.06-16.13Q151.58-16.27 151.07-16.27L151.07-16.27Q150.29-16.27 149.77-16.16Q149.24-16.05 148.91-15.94L148.91-15.94Q148.52-15.80 148.28-15.63L148.28-15.63L148.28 0L144.10 0L144.10-16.39L142.56-17.97L142.56-20.18Z M157.79 1.56L157.79-19.92L162.01-19.92L162.01 1.91Q162.01 3.14 161.70 4.11Q161.39 5.08 160.69 5.83Q160 6.58 158.90 7.12Q157.79 7.66 156.21 8.01L156.21 8.01Q155.84 7.44 155.63 6.95Q155.43 6.46 155.33 6.13L155.33 6.13Q155.21 5.74 155.16 5.43L155.16 5.43Q156.45 5.14 157.12 4.20Q157.79 3.26 157.79 1.56L157.79 1.56ZM159.98-23.34L159.98-23.34Q159.43-23.34 158.96-23.54Q158.48-23.73 158.12-24.06Q157.75-24.39 157.55-24.83Q157.34-25.27 157.34-25.78L157.34-25.78Q157.34-26.31 157.55-26.76Q157.75-27.21 158.12-27.54Q158.48-27.87 158.96-28.06Q159.43-28.24 159.98-28.24L159.98-28.24Q160.53-28.24 161.02-28.06Q161.50-27.87 161.88-27.54Q162.25-27.21 162.46-26.76Q162.68-26.31 162.68-25.78L162.68-25.78Q162.68-25.27 162.46-24.83Q162.25-24.39 161.88-24.06Q161.50-23.73 161.02-23.54Q160.53-23.34 159.98-23.34Z M167.07-6.54L167.07-19.96L171.25-19.96L171.25-6.91Q171.25-4.82 172.07-3.82Q172.89-2.81 174.82-2.81L174.82-2.81Q175.76-2.81 176.52-2.97Q177.29-3.13 177.85-3.34L177.85-3.34Q178.50-3.57 179.00-3.89L179.00-3.89L179.00-19.96L183.20-19.96L183.20-3.22L184.94-1.23L184.94 0L181.17 0L179.63-1.54L178.89-1.54Q178.73-1.43 178.30-1.11Q177.87-0.80 177.20-0.46Q176.52-0.12 175.64 0.14Q174.77 0.39 173.73 0.39L173.73 0.39Q172.09 0.39 170.84-0.10Q169.59-0.59 168.75-1.49Q167.91-2.40 167.49-3.68Q167.07-4.96 167.07-6.54L167.07-6.54Z M189.26 0L189.26-16.39L187.71-17.97L187.71-20.18L191.31-20.18L192.99-18.65L193.55-18.77Q193.69-18.89 194.19-19.18Q194.69-19.47 195.42-19.77Q196.15-20.06 197.09-20.28Q198.03-20.51 199.06-20.51L199.06-20.51Q200.70-20.51 201.98-20.02Q203.26-19.53 204.14-18.62Q205.02-17.71 205.47-16.45Q205.92-15.18 205.92-13.59L205.92-13.59L205.92 0L201.72 0L201.72-13.18Q201.72-15.31 200.83-16.32Q199.94-17.32 198.01-17.32L198.01-17.32Q197.05-17.32 196.23-17.16Q195.41-16.99 194.79-16.78L194.79-16.78Q194.06-16.54 193.44-16.23L193.44-16.23L193.44 0L189.26 0Z"/></g>
</svg>
</g></svg></svg>