<svg version="1.1" preserveAspectRatio="none" xmlns="http://www.w3.org/2000/svg" width="500" height="500" viewBox="0 0 500 500"><rect width="100%" height="100%" fill="#F5F5F5" fill-opacity="1"/><svg viewBox="157.8613 144.5125 447.7591 90" width="333" height="66.93331302479392" x="83.5px" y="216.5333px" xmlns="http://www.w3.org/2000/svg" xmlns:xlink="http://www.w3.org/1999/xlink" preserveAspectRatio="none"><defs></defs><style>.companyName {fill:#08376B;fill-opacity:1;}.icon1 {fill:#35C0ED;fill-opacity:1;}.icon2 {fill:#9AEBA6;fill-opacity:1;}.icon3 {fill:#2F90B0;fill-opacity:1;}.icon3-str {stroke:#2F90B0;stroke-opacity:1;}.shapeStroke-str {stroke:#08376B;stroke-opacity:1;}</style><g opacity="1" transform="rotate(0 157.8613 159.5125)">
<svg width="51.9624" height="60" x="157.8613" y="159.5125" version="1.1" preserveAspectRatio="none" viewBox="17.522998809814453 12.5 64.9530029296875 75">
  <g transform="matrix(1 0 0 1 0 0)" class="icon1"><g><path d="M82.474,31.249L49.999,12.5L17.526,31.248l-0.003,0.002v37.501L49.999,87.5L50,87.499l32.476-18.748V31.25L82.474,31.249z    M79.654,67.121L50,84.24V72.259L50,72.26L30.722,61.131v-22.26l0.002-0.002l9.721,5.612h0.001L50,38.965l9.555,5.517h0.001   l0.001,0.001v11.035L50,61.034v11.225l19.278-11.128v-22.26l-0.002-0.001l-0.001-0.001L50,27.74L30.724,38.869l-10.376-5.991   l29.651-17.12l29.652,17.12l0.003,0.002V67.121z"></path><polygon points="40.443,44.483 40.443,55.518 50,61.035 50,61.034 50,50 40.444,44.482  "></polygon></g></g>
</svg>
</g><g opacity="1" transform="rotate(0 247.8237 159.5125)">
<svg width="357.7967" height="60" x="247.8237" y="159.5125" version="1.1" preserveAspectRatio="none" viewBox="2.4 -28.48 229.48 38.48">
  <g transform="matrix(1 0 0 1 0 0)" class="companyName"><path id="id-D6z1nYkh11" d="M30.28 0L30.28-12.48L22.36-12.48L22.36-10.84L26.84-10.84L26.84-3.60Q25.04-2.44 23.16-1.88Q21.28-1.32 18.88-1.32L18.88-1.32Q15.72-1.32 13.36-2.28Q11-3.24 9.44-4.94Q7.88-6.64 7.10-8.98Q6.32-11.32 6.32-14.12L6.32-14.12Q6.32-16.88 7.06-19.20Q7.80-21.52 9.28-23.20Q10.76-24.88 12.90-25.80Q15.04-26.72 17.88-26.72L17.88-26.72Q19.76-26.72 21.40-26.32Q23.04-25.92 24.32-25.28Q25.60-24.64 26.42-23.82Q27.24-23 27.48-22.16L27.48-22.16L30.36-22.16Q30-23.04 29.14-24.14Q28.28-25.24 26.80-26.20Q25.32-27.16 23.14-27.82Q20.96-28.48 18-28.48L18-28.48Q14.60-28.48 11.74-27.52Q8.88-26.56 6.80-24.76Q4.72-22.96 3.56-20.34Q2.40-17.72 2.40-14.40L2.40-14.40Q2.40-11.56 3.30-8.90Q4.20-6.24 6.06-4.14Q7.92-2.04 10.80-0.78Q13.68 0.48 17.68 0.48L17.68 0.48Q20.68 0.48 23-0.18Q25.32-0.84 26.84-1.64L26.84-1.64L26.84 0L30.28 0Z M55.40-9.96L55.40-9.96Q55.40-7.88 54.68-5.98Q53.96-4.08 52.62-2.64Q51.28-1.20 49.38-0.36Q47.48 0.48 45.12 0.48L45.12 0.48Q42.72 0.48 40.78-0.38Q38.84-1.24 37.50-2.68Q36.16-4.12 35.42-6.02Q34.68-7.92 34.68-9.96L34.68-9.96Q34.68-12.04 35.42-13.94Q36.16-15.84 37.50-17.28Q38.84-18.72 40.78-19.58Q42.72-20.44 45.12-20.44L45.12-20.44Q47.48-20.44 49.38-19.58Q51.28-18.72 52.62-17.28Q53.96-15.84 54.68-13.94Q55.40-12.04 55.40-9.96ZM51.60-9.96L51.60-9.96Q51.60-12.76 51-14.50Q50.40-16.24 49.44-17.20Q48.48-18.16 47.32-18.50Q46.16-18.84 45.08-18.84L45.08-18.84Q44-18.84 42.84-18.50Q41.68-18.16 40.70-17.20Q39.72-16.24 39.10-14.50Q38.48-12.76 38.48-9.96L38.48-9.96Q38.48-7.20 39.10-5.46Q39.72-3.72 40.70-2.76Q41.68-1.80 42.84-1.46Q44-1.12 45.08-1.12L45.08-1.12Q46.16-1.12 47.32-1.46Q48.48-1.80 49.44-2.76Q50.40-3.72 51-5.46Q51.60-7.20 51.60-9.96Z M61.68-20L58.20-20L65.12 0L67.28 0L71.92-13.40L72.08-13.40L77.28 0L79.16 0L86.44-20L84.36-20L78.92-5.04L78.76-5.04L73.08-20L72.28-20L67.04-4.92L66.88-4.92L61.68-20Z M100.92-15.44L103.20-15.44Q103.20-16.52 102.64-17.44Q102.08-18.36 101.10-19.02Q100.12-19.68 98.82-20.06Q97.52-20.44 96.04-20.44L96.04-20.44Q94.64-20.44 93.42-20.08Q92.20-19.72 91.30-19Q90.40-18.28 89.88-17.22Q89.36-16.16 89.36-14.76L89.36-14.76Q89.36-12.84 90.24-11.72Q91.12-10.60 92.44-9.92Q93.76-9.24 95.30-8.82Q96.84-8.40 98.16-7.90Q99.48-7.40 100.36-6.64Q101.24-5.88 101.24-4.56L101.24-4.56Q101.24-4 101.06-3.40Q100.88-2.80 100.40-2.30Q99.92-1.80 99.08-1.46Q98.24-1.12 96.96-1.12L96.96-1.12Q95.36-1.12 94.26-1.62Q93.16-2.12 92.46-2.82Q91.76-3.52 91.46-4.24Q91.16-4.96 91.16-5.44L91.16-5.44L88.56-5.44Q88.56-4.32 89.08-3.26Q89.60-2.20 90.66-1.36Q91.72-0.52 93.26-0.02Q94.80 0.48 96.84 0.48L96.84 0.48Q100.52 0.48 102.38-1.14Q104.24-2.76 104.24-5.40L104.24-5.40Q104.24-7.32 103.34-8.48Q102.44-9.64 101.08-10.34Q99.72-11.04 98.14-11.48Q96.56-11.92 95.20-12.40Q93.84-12.88 92.94-13.56Q92.04-14.24 92.04-15.48L92.04-15.48Q92.04-16 92.24-16.58Q92.44-17.16 92.92-17.66Q93.40-18.16 94.20-18.50Q95-18.84 96.20-18.84L96.20-18.84Q97.40-18.84 98.28-18.50Q99.16-18.16 99.76-17.66Q100.36-17.16 100.64-16.56Q100.92-15.96 100.92-15.44L100.92-15.44Z M114.32-20L110.92-20L110.92 0L114.32 0L114.32-20ZM110.44-26.32L110.44-26.32Q110.44-25.44 111.08-24.80Q111.72-24.16 112.60-24.16L112.60-24.16Q113.48-24.16 114.12-24.80Q114.76-25.44 114.76-26.32L114.76-26.32Q114.76-27.20 114.12-27.84Q113.48-28.48 112.60-28.48L112.60-28.48Q111.72-28.48 111.08-27.84Q110.44-27.20 110.44-26.32Z M125.36-10.08L125.36-28L121.96-28L121.96 0L125.36 0L125.36-7.52L127.68-9.88L135.72 0L140.20 0L130.16-12.32L137.80-20L135.20-20L125.36-10.08Z M150.76-20.44L150.76-20.44Q153.68-20.44 155.28-19.62Q156.88-18.80 157.62-17.48Q158.36-16.16 158.48-14.44Q158.60-12.72 158.60-10.92L158.60-10.92L158.60 0L155.36 0L155.36-1.96Q154.20-0.84 152.40-0.18Q150.60 0.48 148.80 0.48L148.80 0.48Q147.08 0.48 145.76-0.12Q144.44-0.72 143.56-1.68Q142.68-2.64 142.24-3.84Q141.80-5.04 141.80-6.28L141.80-6.28Q141.80-7.56 142.28-8.84Q142.76-10.12 143.72-11.14Q144.68-12.16 146.08-12.80Q147.48-13.44 149.28-13.44L149.28-13.44Q151.08-13.44 152.70-12.74Q154.32-12.04 155.36-10.76L155.36-10.76L155.36-12.48Q155.36-15.76 154.38-17.36Q153.40-18.96 150.80-18.96L150.80-18.96Q149.68-18.96 148.84-18.68Q148-18.40 147.34-17.90Q146.68-17.40 146.12-16.66Q145.56-15.92 145-15L145-15L142.92-17.08Q143.48-17.68 144.10-18.28Q144.72-18.88 145.62-19.36Q146.52-19.84 147.76-20.14Q149-20.44 150.76-20.44ZM155.36-4.84L155.36-7.92Q155.16-8.40 154.78-9.04Q154.40-9.68 153.80-10.28Q153.20-10.88 152.36-11.30Q151.52-11.72 150.36-11.72L150.36-11.72Q149.20-11.72 148.24-11.26Q147.28-10.80 146.62-10.06Q145.96-9.32 145.60-8.32Q145.24-7.32 145.24-6.24L145.24-6.24Q145.24-4.96 145.70-4.02Q146.16-3.08 146.88-2.42Q147.60-1.76 148.48-1.44Q149.36-1.12 150.16-1.12L150.16-1.12Q150.92-1.12 151.70-1.40Q152.48-1.68 153.18-2.18Q153.88-2.68 154.44-3.36Q155-4.04 155.36-4.84L155.36-4.84Z M168.40-20L165.00-20L165.00 0L168.40 0L168.40-12.08Q168.40-13.72 168.78-14.86Q169.16-16 169.76-16.72Q170.36-17.44 171.08-17.76Q171.80-18.08 172.48-18.08L172.48-18.08Q173.40-18.08 174.18-17.48Q174.96-16.88 175.32-16.36L175.32-16.36L176.68-18.84Q176.32-19.32 175.82-19.64Q175.32-19.96 174.82-20.14Q174.32-20.32 173.90-20.38Q173.48-20.44 173.28-20.44L173.28-20.44Q171.60-20.44 170.48-19.52Q169.36-18.60 168.64-16.80L168.64-16.80L168.40-16.80L168.40-20Z M185.04-20L181.60-20L181.60 3.68Q181.60 4.60 181.52 5.46Q181.44 6.32 181.18 7Q180.92 7.68 180.42 8.08Q179.92 8.48 179.12 8.48L179.12 8.48Q178.12 8.48 177.62 8Q177.12 7.52 176.68 6.48L176.68 6.48L174.68 8.04Q175.56 9.20 176.74 9.60Q177.92 10 179.20 10L179.20 10Q180.08 10 181.10 9.68Q182.12 9.36 183.00 8.46Q183.88 7.56 184.46 5.98Q185.04 4.40 185.04 1.88L185.04 1.88L185.04-20ZM181.20-26.32L181.20-26.32Q181.20-25.44 181.82-24.80Q182.44-24.16 183.36-24.16L183.36-24.16Q184.24-24.16 184.88-24.80Q185.52-25.44 185.52-26.32L185.52-26.32Q185.52-27.20 184.88-27.84Q184.24-28.48 183.36-28.48L183.36-28.48Q182.44-28.48 181.82-27.84Q181.20-27.20 181.20-26.32Z M195.32-20L191.92-20L191.92-7Q191.92-6.28 192.06-5.02Q192.20-3.76 192.88-2.54Q193.56-1.32 195.02-0.42Q196.48 0.48 199.12 0.48L199.12 0.48Q200.28 0.52 201.66 0.02Q203.04-0.48 204.44-1.88L204.44-1.88L205.08-2.52L205.24-2.52L205.24 0L208.64 0L208.64-20L205.24-20L205.24-7.60Q205.24-6.04 204.80-4.92Q204.36-3.80 203.64-3.06Q202.92-2.32 201.96-1.96Q201.00-1.60 199.96-1.60L199.96-1.60Q198.28-1.60 197.34-2.26Q196.40-2.92 195.94-3.80Q195.48-4.68 195.40-5.54Q195.32-6.40 195.32-6.80L195.32-6.80L195.32-20Z M228.48 0L231.88 0L231.88-12.96Q231.88-13.68 231.76-14.94Q231.64-16.20 230.98-17.42Q230.32-18.64 228.88-19.54Q227.44-20.44 224.80-20.44L224.80-20.44Q223.64-20.48 222.20-19.98Q220.76-19.48 219.36-18.08L219.36-18.08L218.72-17.44L218.56-17.44L218.56-20L215.16-20L215.16 0L218.56 0L218.56-12.36Q218.56-13.92 219.00-15.04Q219.44-16.16 220.20-16.92Q220.96-17.68 221.94-18.04Q222.92-18.40 223.96-18.40L223.96-18.40Q225.64-18.40 226.56-17.74Q227.48-17.08 227.90-16.20Q228.32-15.32 228.40-14.44Q228.48-13.56 228.48-13.16L228.48-13.16L228.48 0Z"/></g>
</svg>
</g><g opacity="1" transform="rotate(0 227.8237 144.5125)">
<svg width="2" height="90" x="227.8237" y="144.5125" version="1.1" preserveAspectRatio="none" viewBox="0 0 2 90">
  <defs><rect x="0" y="0" width="2" height="90" rx="0px" ry="0px" id="id-tBXipXk0b1711379131950"></rect></defs><use class="companyName shapeStroke-str" style="stroke-width:0;" xlink:href="#id-tBXipXk0b1711379131950"></use>
</svg>
</g></svg></svg>